<svg width="621" height="120" viewBox="0 0 621 120" fill="none" xmlns="http://www.w3.org/2000/svg">
<rect width="621" height="120" rx="23" fill="#EDEDED"/>
<path d="M244.848 52.2V69H243.624V53.304H232.248V69H231.024V52.2H244.848ZM258.099 69.12C256.451 69.12 254.963 68.752 253.635 68.016C252.307 67.264 251.259 66.24 250.491 64.944C249.739 63.648 249.363 62.2 249.363 60.6C249.363 59 249.739 57.552 250.491 56.256C251.259 54.96 252.307 53.944 253.635 53.208C254.963 52.456 256.451 52.08 258.099 52.08C259.747 52.08 261.235 52.448 262.563 53.184C263.891 53.92 264.931 54.936 265.683 56.232C266.451 57.528 266.835 58.984 266.835 60.6C266.835 62.216 266.451 63.672 265.683 64.968C264.931 66.264 263.891 67.28 262.563 68.016C261.235 68.752 259.747 69.12 258.099 69.12ZM258.099 67.992C259.507 67.992 260.779 67.672 261.915 67.032C263.051 66.392 263.947 65.512 264.603 64.392C265.259 63.256 265.587 61.992 265.587 60.6C265.587 59.208 265.259 57.952 264.603 56.832C263.947 55.696 263.051 54.808 261.915 54.168C260.779 53.528 259.507 53.208 258.099 53.208C256.691 53.208 255.411 53.528 254.259 54.168C253.123 54.808 252.227 55.696 251.571 56.832C250.915 57.952 250.587 59.208 250.587 60.6C250.587 61.992 250.915 63.256 251.571 64.392C252.227 65.512 253.123 66.392 254.259 67.032C255.411 67.672 256.691 67.992 258.099 67.992ZM277.611 60.216C278.747 60.472 279.635 60.96 280.275 61.68C280.931 62.4 281.259 63.272 281.259 64.296C281.259 65.272 280.963 66.128 280.371 66.864C279.779 67.6 278.995 68.16 278.019 68.544C277.043 68.928 275.987 69.12 274.851 69.12C273.747 69.12 272.659 68.928 271.587 68.544C270.531 68.16 269.587 67.592 268.755 66.84L269.259 65.976C269.995 66.664 270.835 67.184 271.779 67.536C272.739 67.872 273.715 68.04 274.707 68.04C275.651 68.04 276.531 67.888 277.347 67.584C278.163 67.264 278.811 66.816 279.291 66.24C279.771 65.648 280.011 64.952 280.011 64.152C280.011 63.08 279.595 62.256 278.763 61.68C277.931 61.088 276.763 60.792 275.259 60.792H271.803V59.736H275.211C276.491 59.736 277.491 59.464 278.211 58.92C278.931 58.36 279.291 57.592 279.291 56.616C279.291 55.528 278.835 54.672 277.923 54.048C277.027 53.408 275.907 53.088 274.563 53.088C273.747 53.088 272.923 53.208 272.091 53.448C271.275 53.688 270.491 54.056 269.739 54.552L269.283 53.52C270.115 53.008 270.979 52.624 271.875 52.368C272.787 52.112 273.691 51.984 274.587 51.984C275.675 51.984 276.667 52.168 277.563 52.536C278.475 52.888 279.195 53.408 279.723 54.096C280.267 54.768 280.539 55.56 280.539 56.472C280.539 57.384 280.275 58.168 279.747 58.824C279.235 59.48 278.523 59.944 277.611 60.216ZM295.488 60.36C296.736 60.568 297.672 61.024 298.296 61.728C298.936 62.432 299.256 63.368 299.256 64.536C299.256 65.976 298.752 67.08 297.744 67.848C296.736 68.616 295.24 69 293.256 69H286.032V52.2H292.8C294.56 52.2 295.928 52.568 296.904 53.304C297.896 54.04 298.392 55.096 298.392 56.472C298.392 57.448 298.136 58.264 297.624 58.92C297.112 59.576 296.4 60.056 295.488 60.36ZM287.256 59.976H292.776C294.184 59.976 295.264 59.688 296.016 59.112C296.768 58.536 297.144 57.704 297.144 56.616C297.144 55.512 296.768 54.672 296.016 54.096C295.264 53.52 294.184 53.232 292.776 53.232H287.256V59.976ZM293.28 67.968C296.448 67.968 298.032 66.8 298.032 64.464C298.032 63.264 297.632 62.384 296.832 61.824C296.032 61.264 294.848 60.984 293.28 60.984H287.256V67.968H293.28ZM311.232 69.12C309.584 69.12 308.096 68.752 306.768 68.016C305.44 67.264 304.392 66.24 303.624 64.944C302.872 63.648 302.496 62.2 302.496 60.6C302.496 59 302.872 57.552 303.624 56.256C304.392 54.96 305.44 53.944 306.768 53.208C308.096 52.456 309.584 52.08 311.232 52.08C312.88 52.08 314.368 52.448 315.696 53.184C317.024 53.92 318.064 54.936 318.816 56.232C319.584 57.528 319.968 58.984 319.968 60.6C319.968 62.216 319.584 63.672 318.816 64.968C318.064 66.264 317.024 67.28 315.696 68.016C314.368 68.752 312.88 69.12 311.232 69.12ZM311.232 67.992C312.64 67.992 313.912 67.672 315.048 67.032C316.184 66.392 317.08 65.512 317.736 64.392C318.392 63.256 318.72 61.992 318.72 60.6C318.72 59.208 318.392 57.952 317.736 56.832C317.08 55.696 316.184 54.808 315.048 54.168C313.912 53.528 312.64 53.208 311.232 53.208C309.824 53.208 308.544 53.528 307.392 54.168C306.256 54.808 305.36 55.696 304.704 56.832C304.048 57.952 303.72 59.208 303.72 60.6C303.72 61.992 304.048 63.256 304.704 64.392C305.36 65.512 306.256 66.392 307.392 67.032C308.544 67.672 309.824 67.992 311.232 67.992ZM338.173 52.2V69H336.949V61.008H325.717V69H324.493V52.2H325.717V59.928H336.949V52.2H338.173ZM344.227 52.2H345.451V66.936L356.899 52.2H357.979V69H356.755V54.288L345.307 69H344.227V52.2ZM374.568 53.304H368.52V69H367.296V53.304H361.248V52.2H374.568V53.304ZM384.581 58.344C386.565 58.344 388.069 58.784 389.093 59.664C390.133 60.544 390.653 61.848 390.653 63.576C390.653 65.352 390.101 66.704 388.997 67.632C387.909 68.544 386.333 69 384.269 69H377.837V52.2H379.061V58.344H384.581ZM384.293 67.968C385.973 67.968 387.245 67.6 388.109 66.864C388.973 66.128 389.405 65.04 389.405 63.6C389.405 60.784 387.701 59.376 384.293 59.376H379.061V67.968H384.293Z" fill="#174468"/>
</svg>
