<svg width="618" height="120" viewBox="0 0 618 120" fill="none" xmlns="http://www.w3.org/2000/svg">
<rect width="618" height="120" rx="23" fill="#174468"/>
<path d="M211.28 61.032H207.248V69H206.024V52.2H207.248V59.928H211.304L217.328 52.2H218.696L212.264 60.384L219.128 69H217.688L211.28 61.032ZM229.302 69.12C227.654 69.12 226.166 68.752 224.838 68.016C223.51 67.264 222.462 66.24 221.694 64.944C220.942 63.648 220.566 62.2 220.566 60.6C220.566 59 220.942 57.552 221.694 56.256C222.462 54.96 223.51 53.944 224.838 53.208C226.166 52.456 227.654 52.08 229.302 52.08C230.95 52.08 232.438 52.448 233.766 53.184C235.094 53.92 236.134 54.936 236.886 56.232C237.654 57.528 238.038 58.984 238.038 60.6C238.038 62.216 237.654 63.672 236.886 64.968C236.134 66.264 235.094 67.28 233.766 68.016C232.438 68.752 230.95 69.12 229.302 69.12ZM229.302 67.992C230.71 67.992 231.982 67.672 233.118 67.032C234.254 66.392 235.15 65.512 235.806 64.392C236.462 63.256 236.79 61.992 236.79 60.6C236.79 59.208 236.462 57.952 235.806 56.832C235.15 55.696 234.254 54.808 233.118 54.168C231.982 53.528 230.71 53.208 229.302 53.208C227.894 53.208 226.614 53.528 225.462 54.168C224.326 54.808 223.43 55.696 222.774 56.832C222.118 57.952 221.79 59.208 221.79 60.6C221.79 61.992 222.118 63.256 222.774 64.392C223.43 65.512 224.326 66.392 225.462 67.032C226.614 67.672 227.894 67.992 229.302 67.992ZM256.243 52.2V69H255.019V61.008H243.787V69H242.563V52.2H243.787V59.928H255.019V52.2H256.243ZM269.497 69.12C267.849 69.12 266.361 68.752 265.033 68.016C263.721 67.28 262.681 66.264 261.913 64.968C261.161 63.672 260.785 62.216 260.785 60.6C260.785 58.984 261.161 57.528 261.913 56.232C262.681 54.936 263.721 53.92 265.033 53.184C266.361 52.448 267.849 52.08 269.497 52.08C270.713 52.08 271.833 52.28 272.857 52.68C273.881 53.064 274.753 53.64 275.473 54.408L274.705 55.2C273.361 53.872 271.641 53.208 269.545 53.208C268.137 53.208 266.857 53.528 265.705 54.168C264.553 54.808 263.649 55.696 262.993 56.832C262.337 57.952 262.009 59.208 262.009 60.6C262.009 61.992 262.337 63.256 262.993 64.392C263.649 65.512 264.553 66.392 265.705 67.032C266.857 67.672 268.137 67.992 269.545 67.992C271.625 67.992 273.345 67.32 274.705 65.976L275.473 66.768C274.753 67.536 273.873 68.12 272.833 68.52C271.809 68.92 270.697 69.12 269.497 69.12ZM291.705 52.2L283.953 66.552C283.457 67.48 282.865 68.168 282.177 68.616C281.505 69.064 280.785 69.288 280.017 69.288C279.425 69.288 278.785 69.144 278.097 68.856L278.481 67.848C279.025 68.072 279.537 68.184 280.017 68.184C281.153 68.184 282.097 67.552 282.849 66.288L283.425 65.304L276.537 52.2H277.881L284.097 64.152L290.433 52.2H291.705ZM307.267 52.2V69H306.043V53.304H297.355L297.139 59.472C297.043 61.776 296.843 63.632 296.539 65.04C296.251 66.432 295.819 67.464 295.243 68.136C294.667 68.808 293.907 69.144 292.963 69.144C292.531 69.144 292.131 69.096 291.763 69L291.907 67.872C292.179 67.936 292.443 67.968 292.699 67.968C293.435 67.968 294.027 67.688 294.475 67.128C294.939 66.552 295.291 65.648 295.531 64.416C295.771 63.184 295.931 61.544 296.011 59.496L296.251 52.2H307.267ZM320.065 58.344C322.049 58.344 323.553 58.784 324.577 59.664C325.617 60.544 326.137 61.848 326.137 63.576C326.137 65.352 325.585 66.704 324.481 67.632C323.393 68.544 321.817 69 319.753 69H313.321V52.2H314.545V58.344H320.065ZM319.777 67.968C321.457 67.968 322.729 67.6 323.593 66.864C324.457 66.128 324.889 65.04 324.889 63.6C324.889 60.784 323.185 59.376 319.777 59.376H314.545V67.968H319.777ZM339.326 53.304H333.278V69H332.054V53.304H326.006V52.2H339.326V53.304ZM352.383 64.272H342.639L340.503 69H339.183L346.911 52.2H348.135L355.863 69H354.543L352.383 64.272ZM351.927 63.24L347.511 53.544L343.119 63.24H351.927ZM375.336 67.896V73.056H374.184V69H359.352V52.2H360.576V67.896H371.4V52.2H372.624V67.896H375.336ZM379.133 52.2H380.357V66.936L391.805 52.2H392.885V69H391.661V54.288L380.213 69H379.133V52.2ZM410.458 52.2V69H409.234V63.72H403.882C403.466 63.72 403.074 63.696 402.706 63.648L398.986 69H397.666L401.554 63.432C400.306 63.08 399.346 62.448 398.674 61.536C398.002 60.608 397.666 59.448 397.666 58.056C397.666 56.2 398.242 54.76 399.394 53.736C400.562 52.712 402.138 52.2 404.122 52.2H410.458ZM398.914 58.032C398.914 59.52 399.346 60.664 400.21 61.464C401.074 62.264 402.338 62.664 404.002 62.664H409.234V53.304H404.218C402.522 53.304 401.21 53.712 400.282 54.528C399.37 55.328 398.914 56.496 398.914 58.032Z" fill="white"/>
</svg>
