<svg width="618" height="120" viewBox="0 0 618 120" fill="none" xmlns="http://www.w3.org/2000/svg">
<rect width="618" height="120" rx="23" fill="#EDEDED"/>
<path d="M163.848 52.2V69H162.624V53.304H151.248V69H150.024V52.2H163.848ZM177.099 69.12C175.451 69.12 173.963 68.752 172.635 68.016C171.307 67.264 170.259 66.24 169.491 64.944C168.739 63.648 168.363 62.2 168.363 60.6C168.363 59 168.739 57.552 169.491 56.256C170.259 54.96 171.307 53.944 172.635 53.208C173.963 52.456 175.451 52.08 177.099 52.08C178.747 52.08 180.235 52.448 181.563 53.184C182.891 53.92 183.931 54.936 184.683 56.232C185.451 57.528 185.835 58.984 185.835 60.6C185.835 62.216 185.451 63.672 184.683 64.968C183.931 66.264 182.891 67.28 181.563 68.016C180.235 68.752 178.747 69.12 177.099 69.12ZM177.099 67.992C178.507 67.992 179.779 67.672 180.915 67.032C182.051 66.392 182.947 65.512 183.603 64.392C184.259 63.256 184.587 61.992 184.587 60.6C184.587 59.208 184.259 57.952 183.603 56.832C182.947 55.696 182.051 54.808 180.915 54.168C179.779 53.528 178.507 53.208 177.099 53.208C175.691 53.208 174.411 53.528 173.259 54.168C172.123 54.808 171.227 55.696 170.571 56.832C169.915 57.952 169.587 59.208 169.587 60.6C169.587 61.992 169.915 63.256 170.571 64.392C171.227 65.512 172.123 66.392 173.259 67.032C174.411 67.672 175.691 67.992 177.099 67.992ZM204.843 67.896V72.84H203.667V69H188.307L188.283 72.84H187.107L187.131 67.896H188.043C189.147 67.8 189.915 66.872 190.347 65.112C190.795 63.352 191.067 60.888 191.163 57.72L191.331 52.2H202.251V67.896H204.843ZM192.291 57.816C192.195 60.536 191.979 62.76 191.643 64.488C191.323 66.216 190.771 67.352 189.987 67.896H201.027V53.304H192.435L192.291 57.816ZM214.782 52.2C216.894 52.2 218.55 52.704 219.75 53.712C220.95 54.704 221.55 56.088 221.55 57.864C221.55 59.624 220.95 61.008 219.75 62.016C218.55 63.008 216.894 63.504 214.782 63.504H209.982V69H208.758V52.2H214.782ZM214.782 62.4C216.574 62.4 217.942 62.008 218.886 61.224C219.83 60.44 220.302 59.32 220.302 57.864C220.302 56.408 219.83 55.288 218.886 54.504C217.942 53.704 216.574 53.304 214.782 53.304H209.982V62.4H214.782ZM232.904 69.12C231.256 69.12 229.768 68.752 228.44 68.016C227.112 67.264 226.064 66.24 225.296 64.944C224.544 63.648 224.168 62.2 224.168 60.6C224.168 59 224.544 57.552 225.296 56.256C226.064 54.96 227.112 53.944 228.44 53.208C229.768 52.456 231.256 52.08 232.904 52.08C234.552 52.08 236.04 52.448 237.368 53.184C238.696 53.92 239.736 54.936 240.488 56.232C241.256 57.528 241.64 58.984 241.64 60.6C241.64 62.216 241.256 63.672 240.488 64.968C239.736 66.264 238.696 67.28 237.368 68.016C236.04 68.752 234.552 69.12 232.904 69.12ZM232.904 67.992C234.312 67.992 235.584 67.672 236.72 67.032C237.856 66.392 238.752 65.512 239.408 64.392C240.064 63.256 240.392 61.992 240.392 60.6C240.392 59.208 240.064 57.952 239.408 56.832C238.752 55.696 237.856 54.808 236.72 54.168C235.584 53.528 234.312 53.208 232.904 53.208C231.496 53.208 230.216 53.528 229.064 54.168C227.928 54.808 227.032 55.696 226.376 56.832C225.72 57.952 225.392 59.208 225.392 60.6C225.392 61.992 225.72 63.256 226.376 64.392C227.032 65.512 227.928 66.392 229.064 67.032C230.216 67.672 231.496 67.992 232.904 67.992ZM246.165 52.2H258.141V53.28H247.389V59.328H253.077C255.045 59.328 256.541 59.728 257.565 60.528C258.589 61.328 259.101 62.504 259.101 64.056C259.101 65.656 258.557 66.88 257.469 67.728C256.381 68.576 254.805 69 252.741 69H246.165V52.2ZM252.765 67.968C254.445 67.968 255.717 67.648 256.581 67.008C257.445 66.352 257.877 65.384 257.877 64.104C257.877 61.592 256.173 60.336 252.765 60.336H247.389V67.968H252.765ZM277.188 52.2V69H275.964V61.008H264.732V69H263.508V52.2H264.732V59.928H275.964V52.2H277.188ZM294.835 67.896V69H283.243V52.2H294.475V53.304H284.467V59.928H293.419V61.008H284.467V67.896H294.835ZM310.514 67.896V69H298.922V52.2H310.154V53.304H300.146V59.928H309.098V61.008H300.146V67.896H310.514ZM327.966 69.12C326.318 69.12 324.83 68.752 323.502 68.016C322.174 67.264 321.126 66.24 320.358 64.944C319.606 63.648 319.23 62.2 319.23 60.6C319.23 59 319.606 57.552 320.358 56.256C321.126 54.96 322.174 53.944 323.502 53.208C324.83 52.456 326.318 52.08 327.966 52.08C329.614 52.08 331.102 52.448 332.43 53.184C333.758 53.92 334.798 54.936 335.55 56.232C336.318 57.528 336.702 58.984 336.702 60.6C336.702 62.216 336.318 63.672 335.55 64.968C334.798 66.264 333.758 67.28 332.43 68.016C331.102 68.752 329.614 69.12 327.966 69.12ZM327.966 67.992C329.374 67.992 330.646 67.672 331.782 67.032C332.918 66.392 333.814 65.512 334.47 64.392C335.126 63.256 335.454 61.992 335.454 60.6C335.454 59.208 335.126 57.952 334.47 56.832C333.814 55.696 332.918 54.808 331.782 54.168C330.646 53.528 329.374 53.208 327.966 53.208C326.558 53.208 325.278 53.528 324.126 54.168C322.99 54.808 322.094 55.696 321.438 56.832C320.782 57.952 320.454 59.208 320.454 60.6C320.454 61.992 320.782 63.256 321.438 64.392C322.094 65.512 322.99 66.392 324.126 67.032C325.278 67.672 326.558 67.992 327.966 67.992ZM352.647 61.032H348.615V69H347.391V52.2H348.615V59.928H352.671L358.695 52.2H360.063L353.631 60.384L360.495 69H359.055L352.647 61.032ZM376.47 52.2V69H375.246V53.304H366.558L366.342 59.472C366.246 61.776 366.046 63.632 365.742 65.04C365.454 66.432 365.022 67.464 364.446 68.136C363.87 68.808 363.11 69.144 362.166 69.144C361.734 69.144 361.334 69.096 360.966 69L361.11 67.872C361.382 67.936 361.646 67.968 361.902 67.968C362.638 67.968 363.23 67.688 363.678 67.128C364.142 66.552 364.494 65.648 364.734 64.416C364.974 63.184 365.134 61.544 365.214 59.496L365.454 52.2H376.47ZM382.524 52.2H383.748V66.936L395.196 52.2H396.276V69H395.052V54.288L383.604 69H382.524V52.2ZM416.009 52.2V69H414.785V61.008H403.553V69H402.329V52.2H403.553V59.928H414.785V52.2H416.009ZM422.063 52.2H423.287V66.936L434.735 52.2H435.815V69H434.591V54.288L423.143 69H422.063V52.2ZM447.124 61.032H443.092V69H441.868V52.2H443.092V59.928H447.148L453.172 52.2H454.54L448.108 60.384L454.972 69H453.532L447.124 61.032ZM469.561 67.896V69H457.969V52.2H469.201V53.304H459.193V59.928H468.145V61.008H459.193V67.896H469.561Z" fill="#174468"/>
<path d="M63.4375 56.5625L78.125 41.875" stroke="#174468" stroke-width="3" stroke-linecap="round" stroke-linejoin="round"/>
<path d="M68.3333 41.875H78.125V51.6667" stroke="#174468" stroke-width="3" stroke-linecap="round" stroke-linejoin="round"/>
<path d="M78.125 63.4167V73.2083C78.125 74.2471 77.7124 75.2433 76.9778 75.9778C76.2433 76.7124 75.2471 77.125 74.2083 77.125H46.7917C45.7529 77.125 44.7567 76.7124 44.0222 75.9778C43.2876 75.2433 42.875 74.2471 42.875 73.2083V45.7917C42.875 44.7529 43.2876 43.7567 44.0222 43.0222C44.7567 42.2876 45.7529 41.875 46.7917 41.875H56.5833" stroke="#174468" stroke-width="3" stroke-linecap="round" stroke-linejoin="round"/>
</svg>
