<svg width="47" height="44" viewBox="0 0 47 44" fill="none" xmlns="http://www.w3.org/2000/svg">
<path d="M23.7319 28.8282C28.0058 28.8282 31.4705 25.5999 31.4705 21.6175C31.4705 17.6351 28.0058 14.4067 23.7319 14.4067C19.4579 14.4067 15.9932 17.6351 15.9932 21.6175C15.9932 25.5999 19.4579 28.8282 23.7319 28.8282Z" fill="#EDEDED"/>
<path d="M46.788 12.7839C46.762 10.9653 46.3967 9.16477 45.7083 7.46287C45.1113 6.02733 44.1996 4.7236 43.0312 3.63498C41.8629 2.54636 40.4637 1.6968 38.9231 1.14056C37.1201 0.509908 35.2153 0.168902 33.2898 0.132065C30.8108 0.0288143 30.0248 0 23.7318 0C17.4388 0 16.6322 1.61012e-07 14.1712 0.132065C12.2466 0.169173 10.3427 0.510174 8.5405 1.14056C6.99962 1.69641 5.60022 2.54584 4.43185 3.63451C3.26348 4.72317 2.35186 6.0271 1.75532 7.46287C1.07713 9.14161 0.711956 10.916 0.675561 12.7095C0.564751 15.0218 0.53125 15.7541 0.53125 21.6178C0.53125 27.4815 0.53125 28.2307 0.675561 30.5262C0.714216 32.3223 1.07757 34.0944 1.75532 35.7776C2.35286 37.2129 3.26516 38.5163 4.43392 39.6045C5.60268 40.6927 7.00221 41.5418 8.54308 42.0975C10.3404 42.7535 12.2446 43.1189 14.1738 43.178C16.6554 43.2813 17.4414 43.3125 23.7344 43.3125C30.0274 43.3125 30.834 43.3125 33.295 43.178C35.2204 43.1427 37.1253 42.8025 38.9282 42.1719C40.4685 41.6151 41.8673 40.7653 43.0355 39.6767C44.2038 38.5882 45.1158 37.2848 45.7134 35.8496C46.3912 34.1688 46.7545 32.3967 46.7932 30.5982C46.904 28.2883 46.9375 27.556 46.9375 21.6899C46.9323 15.8262 46.9324 15.0818 46.788 12.7839V12.7839ZM23.7163 32.7065C17.1347 32.7065 11.803 27.7384 11.803 21.6058C11.803 15.4732 17.1347 10.5052 23.7163 10.5052C26.876 10.5052 29.9062 11.6747 32.1404 13.7565C34.3746 15.8383 35.6297 18.6617 35.6297 21.6058C35.6297 24.5499 34.3746 27.3734 32.1404 29.4552C29.9062 31.537 26.876 32.7065 23.7163 32.7065V32.7065ZM36.1039 12.683C35.739 12.6834 35.3776 12.6166 35.0404 12.4866C34.7032 12.3567 34.3968 12.166 34.1388 11.9256C33.8808 11.6852 33.6762 11.3997 33.5367 11.0855C33.3972 10.7713 33.3256 10.4346 33.3259 10.0946C33.3259 9.7548 33.3977 9.41836 33.5373 9.10446C33.6768 8.79056 33.8813 8.50534 34.1392 8.26509C34.397 8.02484 34.7031 7.83426 35.04 7.70424C35.3769 7.57421 35.738 7.50729 36.1026 7.50729C36.4672 7.50729 36.8283 7.57421 37.1652 7.70424C37.5021 7.83426 37.8082 8.02484 38.066 8.26509C38.3239 8.50534 38.5284 8.79056 38.6679 9.10446C38.8075 9.41836 38.8793 9.7548 38.8793 10.0946C38.8793 11.5257 37.6372 12.683 36.1039 12.683Z" fill="#EDEDED"/>
</svg>
