<svg width="47" height="44" viewBox="0 0 47 44" fill="none" xmlns="http://www.w3.org/2000/svg">
<path d="M46.4062 21.6562C46.4062 27.3998 43.9616 32.9081 39.6102 36.9694C35.2588 41.0308 29.357 43.3124 23.2031 43.3124C17.0493 43.3124 11.1475 41.0308 6.79604 36.9694C2.44461 32.9081 0 27.3998 0 21.6562C0 15.9126 2.44461 10.4043 6.79604 6.34295C11.1475 2.28163 17.0493 0 23.2031 0C29.357 0 35.2588 2.28163 39.6102 6.34295C43.9616 10.4043 46.4062 15.9126 46.4062 21.6562ZM24.0355 15.9877C21.779 16.8648 17.266 18.6785 10.5023 21.4288C9.40597 21.8349 8.82879 22.2355 8.77658 22.6253C8.68957 23.2831 9.57419 23.543 10.7779 23.8976L11.2854 24.0465C12.4688 24.4065 14.064 24.8261 14.8906 24.8424C15.6447 24.8586 16.4829 24.5717 17.4081 23.9761C23.7281 19.9941 26.991 17.9828 27.1941 17.9395C27.3391 17.907 27.5421 17.8691 27.6755 17.9828C27.8118 18.0938 27.7973 18.3076 27.7828 18.3645C27.6958 18.7137 24.2241 21.7239 22.4287 23.2831C21.8689 23.7704 21.4716 24.1142 21.3904 24.1927C21.2116 24.3633 21.0298 24.5311 20.8451 24.6962C19.743 25.687 18.9192 26.4287 20.8886 27.6414C21.837 28.2261 22.5969 28.7053 23.3539 29.1871C24.1777 29.7123 25.0014 30.2348 26.0687 30.8899C26.3384 31.0523 26.5995 31.2282 26.8518 31.3961C27.8118 32.0349 28.6791 32.6088 29.7435 32.5168C30.3642 32.4626 31.0052 31.9212 31.33 30.297C32.0986 26.4612 33.6097 18.1533 33.9578 14.7289C33.979 14.4443 33.9664 14.1583 33.9201 13.8762C33.8928 13.6486 33.7747 13.4389 33.5894 13.2888C33.3255 13.1188 33.0109 13.0307 32.6903 13.037C31.8202 13.0506 30.4773 13.4864 24.0355 15.9877Z" fill="#EDEDED"/>
</svg>
