<svg width="47" height="44" viewBox="0 0 47 44" fill="none" xmlns="http://www.w3.org/2000/svg">
<path d="M23.7969 0C10.9834 0 0.59375 9.69697 0.59375 21.6563C0.59375 33.6155 10.9834 43.3125 23.7969 43.3125C36.6104 43.3125 47 33.6155 47 21.6563C47 9.69697 36.6104 0 23.7969 0ZM34.9478 16.3244C34.9634 16.5516 34.9634 16.7884 34.9634 17.0205C34.9634 24.1167 29.173 32.291 18.5917 32.291C15.3288 32.291 12.3041 31.4064 9.75588 29.8837C10.222 29.932 10.6674 29.9514 11.1439 29.9514C13.8371 29.9514 16.3128 29.1006 18.2861 27.6601C15.7586 27.6117 13.6351 26.0648 12.9101 23.9379C13.7957 24.0587 14.5933 24.0587 15.5049 23.8412C14.2034 23.5944 13.0337 22.9348 12.1944 21.9742C11.355 21.0137 10.8978 19.8116 10.9005 18.5722V18.5045C11.6618 18.9057 12.5579 19.1522 13.4953 19.1861C12.7072 18.6959 12.061 18.0318 11.6137 17.2526C11.1665 16.4735 10.9322 15.6034 10.9316 14.7195C10.9316 13.7188 11.2113 12.8052 11.7136 12.0125C13.1582 13.6721 14.9607 15.0295 17.0041 15.9965C19.0475 16.9634 21.286 17.5181 23.5742 17.6247C22.761 13.975 25.6821 11.0215 29.1937 11.0215C30.851 11.0215 32.3427 11.6692 33.3941 12.7134C34.6941 12.4862 35.9371 12.0318 37.0454 11.4227C36.6156 12.665 35.7144 13.714 34.518 14.3763C35.6781 14.2603 36.7968 13.9605 37.8327 13.54C37.0506 14.6131 36.0717 15.5654 34.9478 16.3244Z" fill="#EDEDED"/>
</svg>
