<svg width="618" height="120" viewBox="0 0 618 120" fill="none" xmlns="http://www.w3.org/2000/svg">
<rect width="618" height="120" rx="23" fill="#174468"/>
<path d="M156.744 60.216C157.88 60.472 158.768 60.96 159.408 61.68C160.064 62.4 160.392 63.272 160.392 64.296C160.392 65.272 160.096 66.128 159.504 66.864C158.912 67.6 158.128 68.16 157.152 68.544C156.176 68.928 155.12 69.12 153.984 69.12C152.88 69.12 151.792 68.928 150.72 68.544C149.664 68.16 148.72 67.592 147.888 66.84L148.392 65.976C149.128 66.664 149.968 67.184 150.912 67.536C151.872 67.872 152.848 68.04 153.84 68.04C154.784 68.04 155.664 67.888 156.48 67.584C157.296 67.264 157.944 66.816 158.424 66.24C158.904 65.648 159.144 64.952 159.144 64.152C159.144 63.08 158.728 62.256 157.896 61.68C157.064 61.088 155.896 60.792 154.392 60.792H150.936V59.736H154.344C155.624 59.736 156.624 59.464 157.344 58.92C158.064 58.36 158.424 57.592 158.424 56.616C158.424 55.528 157.968 54.672 157.056 54.048C156.16 53.408 155.04 53.088 153.696 53.088C152.88 53.088 152.056 53.208 151.224 53.448C150.408 53.688 149.624 54.056 148.872 54.552L148.416 53.52C149.248 53.008 150.112 52.624 151.008 52.368C151.92 52.112 152.824 51.984 153.72 51.984C154.808 51.984 155.8 52.168 156.696 52.536C157.608 52.888 158.328 53.408 158.856 54.096C159.4 54.768 159.672 55.56 159.672 56.472C159.672 57.384 159.408 58.168 158.88 58.824C158.368 59.48 157.656 59.944 156.744 60.216ZM175.797 64.272H166.053L163.917 69H162.597L170.325 52.2H171.549L179.277 69H177.957L175.797 64.272ZM175.341 63.24L170.925 53.544L166.533 63.24H175.341ZM196.59 52.2V69H195.366V53.304H183.99V69H182.766V52.2H196.59ZM202.641 52.2H203.865V66.936L215.313 52.2H216.393V69H215.169V54.288L203.721 69H202.641V52.2ZM229.646 69.12C227.998 69.12 226.51 68.752 225.182 68.016C223.87 67.28 222.83 66.264 222.062 64.968C221.31 63.672 220.934 62.216 220.934 60.6C220.934 58.984 221.31 57.528 222.062 56.232C222.83 54.936 223.87 53.92 225.182 53.184C226.51 52.448 227.998 52.08 229.646 52.08C230.862 52.08 231.982 52.28 233.006 52.68C234.03 53.064 234.902 53.64 235.622 54.408L234.854 55.2C233.51 53.872 231.79 53.208 229.694 53.208C228.286 53.208 227.006 53.528 225.854 54.168C224.702 54.808 223.798 55.696 223.142 56.832C222.486 57.952 222.158 59.208 222.158 60.6C222.158 61.992 222.486 63.256 223.142 64.392C223.798 65.512 224.702 66.392 225.854 67.032C227.006 67.672 228.286 67.992 229.694 67.992C231.774 67.992 233.494 67.32 234.854 65.976L235.622 66.768C234.902 67.536 234.022 68.12 232.982 68.52C231.958 68.92 230.846 69.12 229.646 69.12ZM249.765 64.272H240.021L237.885 69H236.565L244.293 52.2H245.517L253.245 69H251.925L249.765 64.272ZM249.309 63.24L244.893 53.544L240.501 63.24H249.309ZM266.427 53.304H260.379V69H259.155V53.304H253.107V52.2H266.427V53.304ZM276.44 58.344C278.424 58.344 279.928 58.784 280.952 59.664C281.992 60.544 282.512 61.848 282.512 63.576C282.512 65.352 281.96 66.704 280.856 67.632C279.768 68.544 278.192 69 276.128 69H269.696V52.2H270.92V58.344H276.44ZM276.152 67.968C277.832 67.968 279.104 67.6 279.968 66.864C280.832 66.128 281.264 65.04 281.264 63.6C281.264 60.784 279.56 59.376 276.152 59.376H270.92V67.968H276.152ZM293.888 69.12C292.24 69.12 290.752 68.752 289.424 68.016C288.112 67.28 287.072 66.264 286.304 64.968C285.552 63.672 285.176 62.216 285.176 60.6C285.176 58.984 285.552 57.528 286.304 56.232C287.072 54.936 288.112 53.92 289.424 53.184C290.752 52.448 292.24 52.08 293.888 52.08C295.104 52.08 296.224 52.28 297.248 52.68C298.272 53.064 299.144 53.64 299.864 54.408L299.096 55.2C297.752 53.872 296.032 53.208 293.936 53.208C292.528 53.208 291.248 53.528 290.096 54.168C288.944 54.808 288.04 55.696 287.384 56.832C286.728 57.952 286.4 59.208 286.4 60.6C286.4 61.992 286.728 63.256 287.384 64.392C288.04 65.512 288.944 66.392 290.096 67.032C291.248 67.672 292.528 67.992 293.936 67.992C296.016 67.992 297.736 67.32 299.096 65.976L299.864 66.768C299.144 67.536 298.264 68.12 297.224 68.52C296.2 68.92 295.088 69.12 293.888 69.12ZM314.896 52.2V69H313.672V63.72H308.32C307.904 63.72 307.512 63.696 307.144 63.648L303.424 69H302.104L305.992 63.432C304.744 63.08 303.784 62.448 303.112 61.536C302.44 60.608 302.104 59.448 302.104 58.056C302.104 56.2 302.68 54.76 303.832 53.736C305 52.712 306.576 52.2 308.56 52.2H314.896ZM303.352 58.032C303.352 59.52 303.784 60.664 304.648 61.464C305.512 62.264 306.776 62.664 308.44 62.664H313.672V53.304H308.656C306.96 53.304 305.648 53.712 304.72 54.528C303.808 55.328 303.352 56.496 303.352 58.032ZM340.798 52.2V69H339.574V61.008H328.342V69H327.118V52.2H328.342V59.928H339.574V52.2H340.798ZM357.484 64.272H347.74L345.604 69H344.284L352.012 52.2H353.236L360.964 69H359.644L357.484 64.272ZM357.028 63.24L352.612 53.544L348.22 63.24H357.028ZM384.442 52.2V69H383.218V53.304H371.842V69H370.618V52.2H384.442ZM396.517 52.2C398.629 52.2 400.285 52.704 401.485 53.712C402.685 54.704 403.285 56.088 403.285 57.864C403.285 59.624 402.685 61.008 401.485 62.016C400.285 63.008 398.629 63.504 396.517 63.504H391.717V69H390.493V52.2H396.517ZM396.517 62.4C398.309 62.4 399.677 62.008 400.621 61.224C401.565 60.44 402.037 59.32 402.037 57.864C402.037 56.408 401.565 55.288 400.621 54.504C399.677 53.704 398.309 53.304 396.517 53.304H391.717V62.4H396.517ZM407.204 52.2H408.428V66.936L419.876 52.2H420.956V69H419.732V54.288L408.284 69H407.204V52.2ZM438.6 67.896V69H427.008V52.2H438.24V53.304H428.232V59.928H437.184V61.008H428.232V67.896H438.6ZM458.576 69L458.552 54.624L451.52 66.768H450.92L443.888 54.672V69H442.688V52.2H443.72L451.232 65.184L458.744 52.2H459.752L459.776 69H458.576Z" fill="white"/>
</svg>
